<svg viewBox="0 0 800 240" version="1.1" xmlns="http://www.w3.org/2000/svg">
  <defs>
    <linearGradient id="fuselageGrad" x1="0%" y1="0%" x2="100%" y2="0%">
      <stop offset="0%" stop-color="#38BDF8" />
      <stop offset="35%" stop-color="#0284C7" />
      <stop offset="75%" stop-color="#0369A1" />
      <stop offset="100%" stop-color="#0F172A" />
    </linearGradient>
    <linearGradient id="wingGrad" x1="0%" y1="100%" x2="100%" y2="0%">
      <stop offset="0%" stop-color="#CBD5E1" />
      <stop offset="60%" stop-color="#94A3B8" />
      <stop offset="100%" stop-color="#64748B" />
    </linearGradient>
    <linearGradient id="engineGrad" x1="0%" y1="0%" x2="100%" y2="100%">
      <stop offset="0%" stop-color="#F8FAFC" />
      <stop offset="70%" stop-color="#64748B" />
      <stop offset="100%" stop-color="#1E293B" />
    </linearGradient>
  </defs>

  <!-- 1. 垂直尾翼 (Vertical Stabilizer) -->
  <path d="M 620 115 L 730 20 L 755 20 L 730 115 Z" fill="#0284C7" stroke="#F8FAFC" stroke-width="1.5" />
  <!-- 尾翼白鹭/航空 Logo -->
  <circle cx="718" cy="50" r="12" fill="#F8FAFC" />
  <path d="M 712 50 Q 718 42 724 50 Q 718 47 712 50 Z" fill="#0284C7" />

  <!-- 2. 主机身 (Boeing 787 Streamlined Fuselage) -->
  <path d="M 90 138 C 110 118, 160 115, 680 115 C 720 115, 755 125, 765 132 C 772 135, 765 140, 700 144 C 550 152, 200 152, 110 145 C 95 143, 85 142, 90 138 Z" fill="url(#fuselageGrad)" stroke="rgba(255,255,255,0.4)" stroke-width="1" />

  <!-- 机头风挡玻璃 (Cockpit Windows) -->
  <path d="M 95 133 C 102 127, 115 127, 122 132 L 122 137 L 98 137 Z" fill="#0F172A" stroke="#38BDF8" stroke-width="1" />

  <!-- 客舱舷窗阵列 (Cabin Windows Array) -->
  <g fill="#F8FAFC" opacity="0.9">
    <circle cx="140" cy="132" r="2" />
    <circle cx="150" cy="132" r="2" />
    <circle cx="160" cy="132" r="2" stroke="#0F172A" stroke-width="1" />
    <circle cx="170" cy="132" r="2" />
    <circle cx="180" cy="132" r="2" />
    <circle cx="190" cy="132" r="2" />
    <!-- 连续舷窗 -->
    <rect x="210" y="130" width="3" height="4" rx="1.5" />
    <rect x="218" y="130" width="3" height="4" rx="1.5" />
    <rect x="226" y="130" width="3" height="4" rx="1.5" />
    <rect x="234" y="130" width="3" height="4" rx="1.5" />
    <rect x="242" y="130" width="3" height="4" rx="1.5" />
    <rect x="250" y="130" width="3" height="4" rx="1.5" />
    <rect x="258" y="130" width="3" height="4" rx="1.5" />
    <rect x="266" y="130" width="3" height="4" rx="1.5" />
    <rect x="330" y="130" width="3" height="4" rx="1.5" />
    <rect x="338" y="130" width="3" height="4" rx="1.5" />
    <rect x="346" y="130" width="3" height="4" rx="1.5" />
    <rect x="354" y="130" width="3" height="4" rx="1.5" />
    <rect x="362" y="130" width="3" height="4" rx="1.5" />
    <rect x="370" y="130" width="3" height="4" rx="1.5" />
    <rect x="378" y="130" width="3" height="4" rx="1.5" />
    <rect x="386" y="130" width="3" height="4" rx="1.5" />
    <rect x="394" y="130" width="3" height="4" rx="1.5" />
    <rect x="402" y="130" width="3" height="4" rx="1.5" />
    <rect x="410" y="130" width="3" height="4" rx="1.5" />
    <rect x="480" y="130" width="3" height="4" rx="1.5" />
    <rect x="488" y="130" width="3" height="4" rx="1.5" />
    <rect x="496" y="130" width="3" height="4" rx="1.5" />
    <rect x="504" y="130" width="3" height="4" rx="1.5" />
    <rect x="512" y="130" width="3" height="4" rx="1.5" />
    <rect x="520" y="130" width="3" height="4" rx="1.5" />
    <rect x="528" y="130" width="3" height="4" rx="1.5" />
    <rect x="536" y="130" width="3" height="4" rx="1.5" />
    <rect x="544" y="130" width="3" height="4" rx="1.5" />
    <rect x="552" y="130" width="3" height="4" rx="1.5" />
    <rect x="620" y="130" width="3" height="4" rx="1.5" />
    <rect x="628" y="130" width="3" height="4" rx="1.5" />
    <rect x="636" y="130" width="3" height="4" rx="1.5" />
    <rect x="644" y="130" width="3" height="4" rx="1.5" />
  </g>

  <!-- 客舱门 L1 / L2 / L3 -->
  <rect x="156" y="124" width="7" height="18" rx="1" stroke="#F8FAFC" stroke-width="1" fill="none" opacity="0.8" />
  <rect x="296" y="124" width="7" height="18" rx="1" stroke="#F8FAFC" stroke-width="1" fill="none" opacity="0.8" />
  <rect x="610" y="124" width="7" height="18" rx="1" stroke="#F8FAFC" stroke-width="1" fill="none" opacity="0.8" />

  <!-- 机身彩绘标语 (in support of the UN) -->
  <text x="500" y="143" font-family="-apple-system, BlinkMacSystemFont, sans-serif" font-size="11" font-weight="bold" fill="#F8FAFC" opacity="0.95">in support of the UN</text>

  <!-- 3. 后平尾 (Horizontal Stabilizer) -->
  <path d="M 660 142 L 760 144 L 748 149 L 650 145 Z" fill="#64748B" />

  <!-- 4. 超后掠大展弦比机翼 (B787 Raked Wingtip Wing) -->
  <path d="M 310 140 L 590 95 C 605 92, 595 97, 570 105 L 360 146 Z" fill="url(#wingGrad)" stroke="#F8FAFC" stroke-width="1" />

  <!-- 5. 巨型 GEnx 发动机引擎舱 (Engine Nacelle with Serrated Chevrons) -->
  <g transform="translate(305, 132)">
    <!-- 锯齿形喷口 -->
    <path d="M 52 8 L 64 6 L 56 12 L 64 18 L 54 24 L 64 28 L 52 32 Z" fill="#1E293B" />
    <!-- 引擎舱外壳 -->
    <path d="M 0 10 C 5 -2, 45 -2, 54 6 C 56 18, 56 30, 48 36 C 30 38, 5 36, 0 24 Z" fill="url(#engineGrad)" stroke="#F8FAFC" stroke-width="1" />
    <!-- 红色进气口防撞圈 -->
    <ellipse cx="2" cy="18" rx="2" ry="11" fill="#EF4444" />
  </g>
</svg>
